<svg width="433" height="73" viewBox="0 0 433 73" fill="none" xmlns="http://www.w3.org/2000/svg">
<g clip-path="url(#clip0_674_2420)">
<path d="M84.0546 3.51147C78.8863 3.51147 74.3941 6.43713 72.1306 10.7167C68.6793 10.1469 63.3243 10.0613 58.1058 13.1988C50.7666 17.6106 46.3047 26.6936 44.8436 40.1971C44.0266 47.7507 41.5885 52.7911 37.6003 55.1773C34.0877 57.279 29.7969 57.1381 26.6438 56.5865C25.3021 50.5536 19.9167 46.0268 13.4862 46.0268C6.05015 46.0268 0 52.077 0 59.5139C0 66.9508 6.05015 73 13.4862 73C18.5758 73 23.0136 70.1652 25.309 65.9928C26.8755 66.2496 28.6323 66.4303 30.4998 66.4303C34.2882 66.4303 38.509 65.6946 42.4116 63.3819C49.1404 59.392 53.139 51.9369 54.2983 41.2199C55.3989 31.0458 58.3808 24.1925 62.9197 21.4017C65.9482 19.5394 69.1704 19.7841 70.9557 20.1429C72.3788 26.0642 77.7044 30.483 84.0546 30.483C91.4915 30.483 97.5416 24.4328 97.5416 16.9968C97.5408 9.56076 91.4906 3.51147 84.0546 3.51147ZM13.4871 66.0827C9.86457 66.0827 6.9173 63.1355 6.9173 59.513C6.9173 55.8905 9.86457 52.9424 13.4871 52.9424C17.1095 52.9424 20.0577 55.8896 20.0577 59.513C20.0577 60.1735 19.9574 60.8107 19.775 61.4116L19.2986 62.5675C18.1963 64.6554 16.0064 66.0827 13.4871 66.0827ZM84.0546 23.5674C80.433 23.5674 77.4857 20.6201 77.4857 16.9977C77.4857 13.3752 80.4321 10.4279 84.0546 10.4279C87.6771 10.4279 90.6252 13.3752 90.6252 16.9977C90.6252 20.6201 87.6771 23.5674 84.0546 23.5674Z" fill="#0137FF"/>
<path d="M150.674 71.5285H137.615V15.0073H120.562V2.14391H167.727V15.0073H150.674V71.5285ZM182.832 71.5285H170.554V26.8963H182.832V30.5019C186.34 26.9937 191.603 25.8243 195.111 25.8243H198.034L195.111 38.0056H193.259C187.51 38.0056 182.832 42.4883 182.832 47.8481V71.5285ZM224.444 72.4055C218.304 72.4055 212.457 70.0667 207.974 65.6815C203.589 61.1988 201.153 55.3517 201.153 49.2124C201.153 43.073 203.589 37.226 207.974 32.7433C212.36 28.358 218.207 26.0192 224.444 26.0192C228.536 26.0192 232.24 27.481 235.455 30.4045L235.943 30.7943V26.8963H247.734V71.5285H235.943V68.0203L235.455 68.5075C231.947 71.9183 227.952 72.4055 224.444 72.4055ZM224.444 37.4209C218.207 37.4209 212.944 42.8781 212.944 49.2124C212.944 55.6441 218.207 61.0039 224.444 61.0039C230.68 61.0039 235.943 55.6441 235.943 49.2124C235.943 42.8781 230.68 37.4209 224.444 37.4209ZM273.558 71.5285H260.89V26.8963H273.558V71.5285ZM267.224 21.5365C263.034 21.5365 259.623 18.1257 259.623 14.0328C259.623 11.9864 260.403 10.1348 261.864 8.77052C263.326 7.30877 265.178 6.52917 267.224 6.52917C271.317 6.52917 274.728 9.93992 274.728 14.0328C274.728 18.1257 271.317 21.5365 267.224 21.5365ZM300.065 71.5285H287.396V0H300.065V71.5285ZM328.813 71.9183C327.448 71.9183 325.987 71.7234 324.233 71.431C319.36 70.4565 314.78 68.3126 311.174 65.0968L309.713 63.9274L317.021 55.839L318.386 57.1059C322.673 60.7115 326.182 61.3937 328.423 61.3937C330.08 61.3937 331.249 61.1988 332.418 60.6141C333.88 60.0294 334.562 59.0549 334.562 57.6906C334.562 56.5211 333.88 55.0594 328.131 54.0849C322.868 53.0129 319.555 51.941 317.996 51.0639C315.949 49.8945 314.293 48.3353 313.123 46.3863C311.954 44.4373 311.369 42.2934 311.369 39.8572C311.369 37.3234 312.149 34.8872 313.708 32.6458C314.975 30.7943 316.826 29.3325 319.555 27.9682C321.796 26.8963 324.33 26.409 327.351 26.409C328.423 26.409 329.495 26.5065 330.469 26.6039C334.757 27.2861 339.045 29.1376 342.553 31.8662L344.015 33.0356L337.096 41.0266L335.732 39.9546C332.321 37.226 329.397 36.7387 327.643 36.7387C326.377 36.7387 325.207 36.9336 324.135 37.4209C322.868 38.103 322.186 39.175 322.186 39.8572C322.186 41.2215 323.161 42.196 328.228 43.3654C334.855 44.9246 336.999 45.7042 338.363 46.2889C341.092 47.8481 342.261 49.1149 343.235 50.3818C344.697 52.4282 345.379 54.9619 345.379 57.6906C345.379 60.5166 344.6 63.0503 343.138 65.0968C341.676 67.1432 339.727 68.8973 336.901 70.2616C334.66 71.3336 331.736 71.9183 328.813 71.9183ZM373.25 72.6004H373.153C370.327 72.6004 367.403 71.9183 364.674 70.6514C362.141 69.5795 359.802 67.8254 357.658 65.584C354.247 61.8809 352.201 57.0084 351.714 51.941C351.616 51.0639 351.519 50.1869 351.519 49.2124C351.519 47.2634 351.811 45.2169 352.298 43.1705C353.175 39.2725 355.027 35.6668 357.658 32.9382C359.607 30.7943 361.848 29.1376 364.674 27.7733C367.306 26.5065 370.229 25.9218 373.25 25.9218C376.368 25.9218 379.195 26.5065 381.826 27.7733C384.749 29.1376 387.088 30.8917 388.842 32.9382C391.376 35.6668 393.325 39.175 394.299 43.1705C394.787 45.022 394.981 46.971 394.981 49.2124V51.4537H362.238L362.336 52.1359C363.603 58.1778 368.183 62.5631 373.25 62.5631H373.348C376.174 62.3682 379.292 60.6141 381.144 59.0549L382.216 58.1778L390.304 65.1942L388.842 66.4611C387.77 67.4356 386.406 68.605 384.944 69.3846H384.847C381.338 71.431 377.538 72.503 373.25 72.6004ZM373.25 36.0566C369.45 36.0566 365.649 38.6878 363.602 42.7807L363.213 43.5603H383.385L382.995 42.7807C380.754 38.5903 377.051 36.0566 373.25 36.0566ZM432.695 71.5285H421.001C416.713 71.5285 412.717 69.8718 409.794 66.9483C406.773 63.9274 405.214 60.0294 405.214 55.7415V37.226H398.977V27.1886H405.214V9.64758H416.81V27.1886H429.771V37.226H416.81V55.5466C416.81 57.9829 418.954 60.2243 421.098 60.2243H429.576L432.695 71.5285Z" fill="white"/>
</g>
<defs>
<clipPath id="clip0_674_2420">
<rect width="433" height="73" fill="white"/>
</clipPath>
</defs>
</svg>
