<svg width="9" height="14" viewBox="0 0 9 14" fill="none" xmlns="http://www.w3.org/2000/svg">
<path d="M0.944092 2.11108C0.944092 1.86935 1.01527 1.63304 1.14863 1.43205C1.28199 1.23105 1.47154 1.0744 1.69331 0.981892C1.91508 0.889385 2.15911 0.86518 2.39454 0.91234C2.62997 0.9595 2.84623 1.07591 3.01596 1.24684C3.1857 1.41777 3.30129 1.63555 3.34812 1.87263C3.39495 2.10972 3.37092 2.35547 3.27906 2.5788C3.1872 2.80213 3.03164 2.99302 2.83205 3.12732C2.63246 3.26162 2.39781 3.3333 2.15777 3.3333C1.83588 3.3333 1.52718 3.20453 1.29957 2.97532C1.07196 2.74611 0.944092 2.43523 0.944092 2.11108ZM2.15777 8.22219C2.39781 8.22219 2.63246 8.15051 2.83205 8.01621C3.03164 7.88191 3.1872 7.69102 3.27906 7.46769C3.37092 7.24436 3.39495 6.99861 3.34812 6.76152C3.30129 6.52444 3.1857 6.30666 3.01596 6.13573C2.84623 5.96479 2.62997 5.84839 2.39454 5.80123C2.15911 5.75407 1.91508 5.77827 1.69331 5.87078C1.47154 5.96329 1.28199 6.11994 1.14863 6.32094C1.01527 6.52193 0.944092 6.75823 0.944092 6.99997C0.944092 7.32412 1.07196 7.635 1.29957 7.86421C1.52718 8.09342 1.83588 8.22219 2.15777 8.22219ZM2.15777 13.1111C2.39781 13.1111 2.63246 13.0394 2.83205 12.9051C3.03164 12.7708 3.1872 12.5799 3.27906 12.3566C3.37092 12.1332 3.39495 11.8875 3.34812 11.6504C3.30129 11.4133 3.1857 11.1955 3.01596 11.0246C2.84623 10.8537 2.62997 10.7373 2.39454 10.6901C2.15911 10.643 1.91508 10.6672 1.69331 10.7597C1.47154 10.8522 1.28199 11.0088 1.14863 11.2098C1.01527 11.4108 0.944092 11.6471 0.944092 11.8889C0.944092 12.213 1.07196 12.5239 1.29957 12.7531C1.52718 12.9823 1.83588 13.1111 2.15777 13.1111ZM7.01247 3.3333C7.25251 3.3333 7.48716 3.26162 7.68675 3.12732C7.88634 2.99302 8.0419 2.80213 8.13376 2.5788C8.22562 2.35547 8.24965 2.10972 8.20282 1.87263C8.15599 1.63555 8.0404 1.41777 7.87067 1.24684C7.70093 1.07591 7.48467 0.9595 7.24924 0.91234C7.01381 0.86518 6.76978 0.889385 6.54801 0.981892C6.32624 1.0744 6.13669 1.23105 6.00333 1.43205C5.86997 1.63304 5.79879 1.86935 5.79879 2.11108C5.79879 2.43523 5.92666 2.74611 6.15427 2.97532C6.38188 3.20453 6.69058 3.3333 7.01247 3.3333ZM7.01247 8.22219C7.25251 8.22219 7.48716 8.15051 7.68675 8.01621C7.88634 7.88191 8.0419 7.69102 8.13376 7.46769C8.22562 7.24436 8.24965 6.99861 8.20282 6.76152C8.15599 6.52444 8.0404 6.30666 7.87067 6.13573C7.70093 5.96479 7.48467 5.84839 7.24924 5.80123C7.01381 5.75407 6.76978 5.77827 6.54801 5.87078C6.32624 5.96329 6.13669 6.11994 6.00333 6.32094C5.86997 6.52193 5.79879 6.75823 5.79879 6.99997C5.79879 7.32412 5.92666 7.635 6.15427 7.86421C6.38188 8.09342 6.69058 8.22219 7.01247 8.22219ZM7.01247 13.1111C7.25251 13.1111 7.48716 13.0394 7.68675 12.9051C7.88634 12.7708 8.0419 12.5799 8.13376 12.3566C8.22562 12.1332 8.24965 11.8875 8.20282 11.6504C8.15599 11.4133 8.0404 11.1955 7.87067 11.0246C7.70093 10.8537 7.48467 10.7373 7.24924 10.6901C7.01381 10.643 6.76978 10.6672 6.54801 10.7597C6.32624 10.8522 6.13669 11.0088 6.00333 11.2098C5.86997 11.4108 5.79879 11.6471 5.79879 11.8889C5.79879 12.213 5.92666 12.5239 6.15427 12.7531C6.38188 12.9823 6.69058 13.1111 7.01247 13.1111Z" fill="#737B85"/>
</svg>
