<svg width="10" height="22" viewBox="0 0 10 22" fill="none" xmlns="http://www.w3.org/2000/svg">
<path d="M5.0001 8.8C7.43015 8.8 9.4001 6.83005 9.4001 4.4C9.4001 1.96995 7.43015 0 5.0001 0C2.57004 0 0.600098 1.96995 0.600098 4.4C0.600098 6.83005 2.57004 8.8 5.0001 8.8Z" fill="#292D32"/>
<path d="M5.4001 8.79999H4.6001V20H5.4001V8.79999Z" fill="#292D32"/>
<path d="M6.66667 19V20.7603H3.33333V19C1.34667 19.2355 0 19.8678 0 20.4504C0 21.1818 2.14 22 5 22C7.86 22 10 21.1818 10 20.4504C10 19.8678 8.65333 19.2355 6.66667 19Z" fill="#292D32"/>
</svg>
