<svg width="15" height="15" viewBox="0 0 15 15" fill="none" xmlns="http://www.w3.org/2000/svg">
<path d="M12.8032 2.19682C11.3867 0.780202 9.50335 0 7.5 0C5.49665 0 3.61327 0.780202 2.19682 2.19682C0.780202 3.61327 0 5.49665 0 7.5C0 9.50335 0.780202 11.3867 2.19666 12.8032C3.61327 14.2198 5.49665 15 7.5 15C9.50335 15 11.3867 14.2198 12.8032 12.8033C14.2198 11.3867 15 9.50335 15 7.5C15 5.49665 14.2198 3.61327 12.8032 2.19682ZM7.5 14.0041C3.91371 14.0041 0.995884 11.0863 0.995884 7.5C0.995884 3.91371 3.91371 0.995884 7.5 0.995884C11.0863 0.995884 14.0041 3.91371 14.0041 7.5C14.0041 11.0863 11.0863 14.0041 7.5 14.0041ZM10.5172 5.18701L8.20418 7.5L10.5172 9.81299C10.7116 10.0074 10.7116 10.3228 10.5172 10.5172C10.4199 10.6145 10.2926 10.663 10.1652 10.663C10.0377 10.663 9.91028 10.6145 9.81315 10.5172L7.5 8.20418L5.18701 10.5172C4.99259 10.7116 4.67724 10.7116 4.48283 10.5172C4.28841 10.3228 4.28841 10.0074 4.48283 9.81299L6.79582 7.5L4.48283 5.18701C4.28841 4.99259 4.28841 4.67724 4.48283 4.48283C4.67724 4.28841 4.99259 4.28841 5.18701 4.48283L7.5 6.79582L9.81299 4.48283C10.0074 4.28841 10.3228 4.28825 10.5172 4.48283C10.7116 4.67724 10.7116 4.99259 10.5172 5.18701Z" fill="#94A0C5"/>
</svg>
