<svg width="14" height="20" viewBox="0 0 14 20" fill="none" xmlns="http://www.w3.org/2000/svg">
<path d="M7.02941 14.9796C7.11077 15.0586 7.21991 15.1027 7.33354 15.1027C7.44717 15.1027 7.55631 15.0586 7.63767 14.9796L12.9393 9.66325C12.9811 9.62495 13.0144 9.57848 13.0371 9.52674C13.0599 9.47501 13.0717 9.41915 13.0717 9.36267C13.0717 9.30619 13.0599 9.25033 13.0371 9.1986C13.0144 9.14686 12.9811 9.10038 12.9393 9.06209L11.9859 8.10923C11.9045 8.0303 11.7954 7.98612 11.6817 7.98612C11.5681 7.98612 11.459 8.0303 11.3776 8.10923L8.43908 11.0537V1.2961C8.43908 1.18764 8.39578 1.08362 8.31871 1.00692C8.24163 0.930232 8.1371 0.887146 8.0281 0.887146H6.67185C6.56285 0.887146 6.45832 0.930232 6.38125 1.00692C6.30417 1.08362 6.26087 1.18764 6.26087 1.2961V11.0537L3.32234 8.12559C3.24098 8.04666 3.13185 8.00247 3.01821 8.00247C2.90458 8.00247 2.79544 8.04666 2.71408 8.12559L1.7606 9.07845C1.71889 9.11674 1.68559 9.16322 1.66282 9.21495C1.64005 9.26669 1.6283 9.32255 1.6283 9.37903C1.6283 9.4355 1.64005 9.49137 1.66282 9.5431C1.68559 9.59483 1.71889 9.64131 1.7606 9.67961L7.02941 14.9796Z" fill="#292D32"/>
<path d="M13.3586 17.0775H1.31268C1.07662 17.0775 0.885254 17.2679 0.885254 17.5028V18.8483C0.885254 19.0832 1.07662 19.2736 1.31268 19.2736H13.3586C13.5947 19.2736 13.786 19.0832 13.786 18.8483V17.5028C13.786 17.2679 13.5947 17.0775 13.3586 17.0775Z" fill="#292D32"/>
</svg>
