<svg width="21" height="26" viewBox="0 0 21 26" fill="none" xmlns="http://www.w3.org/2000/svg">
<mask id="path-1-inside-1_115_232" fill="white">
<path fill-rule="evenodd" clip-rule="evenodd" d="M0 10.2371C0 4.62565 4.51191 0.0379152 10.1234 0C15.7348 0 20.3225 4.51191 20.3225 10.1234C20.3225 15.7348 10.1992 26 10.1992 26C10.1992 26 0.0379152 15.8486 0 10.2371Z"/>
</mask>
<path fill-rule="evenodd" clip-rule="evenodd" d="M0 10.2371C0 4.62565 4.51191 0.0379152 10.1234 0C15.7348 0 20.3225 4.51191 20.3225 10.1234C20.3225 15.7348 10.1992 26 10.1992 26C10.1992 26 0.0379152 15.8486 0 10.2371Z" fill="#42C05E"/>
<path d="M10.1234 0V-1.00002L10.1166 -0.999977L10.1234 0ZM0 10.2371H-1.00002L-0.999977 10.2439L0 10.2371ZM10.1992 26L9.49242 26.7074L10.2045 27.4188L10.9112 26.7022L10.1992 26ZM10.1166 -0.999977C3.94978 -0.958309 -1 4.08176 -1 10.2371H1C1 5.16955 5.07404 1.03414 10.1301 0.999977L10.1166 -0.999977ZM21.3225 10.1234C21.3225 3.94993 16.2773 -1 10.1234 -1V1C15.1923 1 19.3225 5.07389 19.3225 10.1234H21.3225ZM10.1992 26C10.9112 26.7022 10.9113 26.702 10.9115 26.7019C10.9116 26.7018 10.9118 26.7015 10.912 26.7013C10.9125 26.7009 10.9131 26.7003 10.9138 26.6995C10.9153 26.698 10.9174 26.6959 10.9201 26.6932C10.9254 26.6877 10.9332 26.6798 10.9433 26.6694C10.9635 26.6488 10.993 26.6185 11.0312 26.5791C11.1075 26.5002 11.2186 26.3848 11.3595 26.2364C11.6412 25.9396 12.0422 25.5107 12.5228 24.9789C13.4832 23.9164 14.7661 22.4379 16.0515 20.7783C17.334 19.1224 18.6351 17.2655 19.62 15.4478C20.5893 13.659 21.3225 11.7834 21.3225 10.1234H19.3225C19.3225 11.269 18.7904 12.7809 17.8616 14.495C16.9484 16.1803 15.7186 17.9419 14.4703 19.5537C13.2248 21.1617 11.9769 22.6003 11.0391 23.6378C10.5707 24.1561 10.1808 24.573 9.90886 24.8595C9.77291 25.0028 9.6665 25.1134 9.59456 25.1876C9.55859 25.2248 9.53125 25.2528 9.51315 25.2713C9.5041 25.2806 9.49735 25.2875 9.493 25.2919C9.49082 25.2941 9.48924 25.2957 9.48827 25.2967C9.48778 25.2972 9.48745 25.2976 9.48727 25.2977C9.48718 25.2978 9.48715 25.2979 9.48711 25.2979C9.48713 25.2979 9.48718 25.2978 10.1992 26ZM-0.999977 10.2439C-0.988764 11.9035 -0.245174 13.771 0.733511 15.5495C1.72784 17.3564 3.03763 19.199 4.32748 20.8407C5.62023 22.486 6.90929 23.9503 7.8739 25.0021C8.3567 25.5285 8.75943 25.9529 9.04226 26.2466C9.18371 26.3934 9.29525 26.5076 9.37191 26.5856C9.41025 26.6246 9.43987 26.6546 9.46016 26.675C9.47031 26.6853 9.47812 26.6931 9.48352 26.6985C9.48623 26.7012 9.48832 26.7033 9.48981 26.7048C9.49055 26.7056 9.49114 26.7062 9.49158 26.7066C9.4918 26.7068 9.49201 26.707 9.49212 26.7071C9.49229 26.7073 9.49242 26.7074 10.1992 26C10.906 25.2926 10.906 25.2926 10.906 25.2926C10.906 25.2926 10.906 25.2926 10.9059 25.2925C10.9057 25.2923 10.9054 25.292 10.9049 25.2915C10.9039 25.2905 10.9023 25.2889 10.9001 25.2867C10.8958 25.2823 10.889 25.2755 10.8799 25.2664C10.8618 25.2481 10.8343 25.2203 10.7982 25.1836C10.726 25.1102 10.6192 25.0008 10.4827 24.8591C10.2097 24.5757 9.8183 24.1632 9.34789 23.6503C8.40608 22.6233 7.15245 21.1989 5.90014 19.605C4.64494 18.0074 3.4073 16.26 2.48573 14.5853C1.54851 12.8821 1.00772 11.3765 0.999977 10.2303L-0.999977 10.2439Z" fill="white" mask="url(#path-1-inside-1_115_232)"/>
</svg>
