<svg width="16" height="17" viewBox="0 0 16 17" fill="none" xmlns="http://www.w3.org/2000/svg">
<path d="M2.80039 7.23473V9.12023H4.77929V7.23473H2.80039ZM2.80039 9.88359V11.7691H4.77929V9.88359H2.80039ZM2.80039 12.5324V14.4179H4.77929V12.5324H2.80039ZM5.60815 7.23473V9.12023H7.58705V7.23473H5.60815ZM5.60815 9.88359V11.7691H7.58705V9.88359H5.60815ZM5.60815 12.5324V14.4179H7.58705V12.5324H5.60815ZM8.4159 7.23473V9.12023H10.3948V7.23473H8.4159ZM8.4159 9.88359V11.7691H10.3948V9.88359H8.4159ZM8.4159 12.5324V14.4179H10.3948V12.5324H8.4159ZM11.2237 7.23473V9.12023H13.2026V7.23473H11.2237ZM11.2237 9.88359V11.7691H13.2026V9.88359H11.2237ZM11.2237 12.5324V14.4179H13.2026V12.5324H11.2237ZM11.2237 14.4179H13.2026V12.5324H11.2237V14.4179ZM11.2237 11.7691H13.2026V9.88359H11.2237V11.7691ZM11.2237 7.23473V9.12023H13.2026V7.23473H11.2237ZM8.4159 14.4179H10.3948V12.5324H8.4159V14.4179ZM8.4159 11.7691H10.3948V9.88359H8.4159V11.7691ZM8.4159 9.12023H10.3948V7.23473H8.4159V9.12023ZM5.60815 14.4179H7.58705V12.5324H5.60815V14.4179ZM5.60815 11.7691H7.58705V9.88359H5.60815V11.7691ZM5.60815 9.12023H7.58705V7.23473H5.60815V9.12023ZM2.80039 14.4179H4.77929V12.5324H2.80039V14.4179ZM2.80039 11.7691H4.77929V9.88359H2.80039V11.7691ZM2.80039 9.12023H4.77929V7.23473H2.80039V9.12023ZM16 15.6279V3.82443C16 3.79389 15.9937 3.76336 15.9834 3.73473C15.9834 3.73282 15.9834 3.73282 15.9813 3.73092C15.9668 3.69084 15.9419 3.65267 15.9088 3.62214L13.6957 1.58397C13.2544 1.17748 12.8151 0.772901 12.3737 0.366412C12.2763 0.276718 12.181 0.183206 12.0815 0.0973282C11.9904 0.0171755 11.8909 0 11.7749 0H1.22556C0.935459 0 0.66608 0.0763358 0.436071 0.242366C0.15426 0.448473 0.0029931 0.765267 0.000920954 1.09351C0.000920954 1.14885 0.000920954 1.2042 0.000920954 1.25954V15.5153C0.000920954 15.6489 -0.00115119 15.7844 0.000920954 15.9179C0.00713739 16.4103 0.384268 16.874 0.918881 16.9733C1.03285 16.9943 1.14682 17 1.26079 17H14.6054C14.6738 17 14.7401 17 14.8085 17C15.2084 16.9981 15.5689 16.8225 15.799 16.521C16.0082 16.2443 16 15.9389 16 15.6279ZM14.0314 6.87977V9.50191C14.0314 9.51145 14.0314 9.51908 14.0314 9.52863V12.1508C14.0314 12.1603 14.0314 12.1679 14.0314 12.1775V14.7996C14.0314 15.0057 13.8408 15.1813 13.617 15.1813H2.38596C2.16217 15.1813 1.97153 15.0057 1.97153 14.7996V6.85305C1.97153 6.64695 2.16217 6.47137 2.38596 6.47137H5.19372C5.20408 6.47137 5.21237 6.47137 5.22273 6.47137H8.00147C8.01184 6.47137 8.02012 6.47137 8.03049 6.47137H10.8092C10.8196 6.47137 10.8279 6.47137 10.8382 6.47137H13.617C13.8408 6.46183 14.0314 6.65267 14.0314 6.85305C14.0314 6.8626 14.0314 6.87214 14.0314 6.87977ZM12.1768 3.51908V1.68321C12.324 1.8187 12.4711 1.9542 12.6182 2.08969C13.1363 2.56489 14.4355 3.76336 14.9535 4.23855L12.1768 4.08673V3.51908ZM11.2237 14.4179H13.2026V12.5324H11.2237V14.4179ZM11.2237 11.7691H13.2026V9.88359H11.2237V11.7691ZM11.2237 9.12023H13.2026V7.23473H11.2237V9.12023ZM8.4159 14.4179H10.3948V12.5324H8.4159V14.4179ZM8.4159 11.7691H10.3948V9.88359H8.4159V11.7691ZM8.4159 9.12023H10.3948V7.23473H8.4159V9.12023ZM5.60815 14.4179H7.58705V12.5324H5.60815V14.4179ZM5.60815 11.7691H7.58705V9.88359H5.60815V11.7691ZM5.60815 9.12023H7.58705V7.23473H5.60815V9.12023ZM2.80039 14.4179H4.77929V12.5324H2.80039V14.4179ZM2.80039 11.7691H4.77929V9.88359H2.80039V11.7691ZM2.80039 9.12023H4.77929V7.23473H2.80039V9.12023Z" fill="#7ED591"/>
</svg>
