<svg width="19" height="15" viewBox="0 0 19 15" fill="none" xmlns="http://www.w3.org/2000/svg">
<path d="M5.6934 0.631245C5.60967 0.632108 5.52694 0.649565 5.45 0.682607C5.37305 0.715649 5.30342 0.76362 5.24514 0.823745C5.18686 0.883869 5.14107 0.954954 5.11044 1.03289C5.0798 1.11082 5.06493 1.19405 5.06667 1.27777V4.93263L4.22222 4.18055C4.15928 4.12292 4.08535 4.07861 4.00486 4.05027C3.92437 4.02193 3.83898 4.01014 3.75382 4.01562C3.62881 4.02383 3.50904 4.06892 3.40966 4.1452C3.31028 4.22148 3.23575 4.32551 3.1955 4.44415C3.15524 4.56279 3.15108 4.69069 3.18352 4.8117C3.21597 4.9327 3.28357 5.04137 3.37778 5.12395L5.27778 6.81284C5.3939 6.91669 5.54422 6.9741 5.7 6.9741C5.85578 6.9741 6.0061 6.91669 6.12222 6.81284L8.02222 5.12395C8.08727 5.0694 8.1407 5.00233 8.17931 4.92672C8.21793 4.85111 8.24095 4.76851 8.24701 4.68383C8.25307 4.59915 8.24204 4.51411 8.21458 4.43377C8.18712 4.35344 8.14379 4.27944 8.08717 4.21618C8.03055 4.15293 7.96179 4.10169 7.88497 4.06554C7.80816 4.02938 7.72486 4.00904 7.64002 4.00571C7.55519 4.00239 7.47055 4.01615 7.39115 4.04619C7.31174 4.07622 7.23918 4.12192 7.17778 4.18055L6.33333 4.93263V1.27777C6.3351 1.19294 6.3198 1.10862 6.28835 1.02982C6.2569 0.951016 6.20993 0.879334 6.15024 0.819031C6.09056 0.758727 6.01936 0.71103 5.94088 0.678772C5.86241 0.646514 5.77825 0.630352 5.6934 0.631245ZM10.7007 3.6C10.5444 3.61638 10.3998 3.69027 10.2949 3.80731C10.1901 3.92435 10.1325 4.07619 10.1333 4.23333V7.82222H0.633333C0.465368 7.82223 0.304287 7.88897 0.185518 8.00774C0.0667482 8.12651 1.6794e-05 8.28759 0 8.45555V12.8889C1.6794e-05 13.0569 0.0667482 13.2179 0.185518 13.3367C0.304287 13.4555 0.465368 13.5222 0.633333 13.5222H2.41458C2.68537 14.3764 3.49428 15 4.43333 15C5.37239 15 6.1813 14.3764 6.45208 13.5222H12.9701C13.2409 14.3764 14.0498 15 14.9889 15C15.9279 15 16.7369 14.3764 17.0076 13.5222H18.3667C18.5346 13.5222 18.6957 13.4555 18.8145 13.3367C18.9333 13.2179 19 13.0569 19 12.8889V7.46597C19 6.62606 18.7035 5.72281 18.1753 4.97222C17.6472 4.22163 16.8292 3.6 15.8069 3.6H10.7667C10.7447 3.59885 10.7227 3.59885 10.7007 3.6ZM11.4 4.86666H13.0889V8.45555C13.0889 8.62352 13.1556 8.7846 13.2744 8.90337C13.3932 9.02214 13.5543 9.08887 13.7222 9.08888H17.7333V12.2556H17.001C16.7278 11.4054 15.9251 10.7778 14.9889 10.7778C14.0527 10.7778 13.2499 11.4054 12.9767 12.2556H6.44549C6.1723 11.4054 5.36953 10.7778 4.43333 10.7778C3.49714 10.7778 2.69437 11.4054 2.42118 12.2556H1.26667V9.08888H10.7667C10.9346 9.08887 11.0957 9.02214 11.2145 8.90337C11.3333 8.7846 11.4 8.62352 11.4 8.45555V4.86666ZM14.3556 4.86666H15.8069C16.3107 4.86666 16.7694 5.17842 17.1396 5.70451C17.5098 6.2306 17.7333 6.94729 17.7333 7.46597V7.82222H14.3556V4.86666ZM4.43333 12.0444C4.90722 12.0444 5.27778 12.415 5.27778 12.8889C5.27778 13.3628 4.90721 13.7333 4.43333 13.7333C3.95945 13.7333 3.58889 13.3628 3.58889 12.8889C3.58889 12.415 3.95944 12.0444 4.43333 12.0444ZM14.9889 12.0444C15.4628 12.0444 15.8333 12.415 15.8333 12.8889C15.8333 13.3628 15.4628 13.7333 14.9889 13.7333C14.515 13.7333 14.1444 13.3628 14.1444 12.8889C14.1444 12.415 14.515 12.0444 14.9889 12.0444Z" fill="#8AA2FD"/>
</svg>
