<svg width="21" height="11" viewBox="0 0 21 11" fill="none" xmlns="http://www.w3.org/2000/svg">
<path d="M4.6295 10.729C5.53888 10.729 6.27608 9.99182 6.27608 9.08244C6.27608 8.17305 5.53888 7.43585 4.6295 7.43585C3.72011 7.43585 2.98291 8.17305 2.98291 9.08244C2.98291 9.99182 3.72011 10.729 4.6295 10.729Z" fill="#0137FF"/>
<path d="M19.7184 2.02839C19.6922 1.96158 19.6302 1.91624 19.5586 1.91146L14.9219 1.56067V8.77462H15.6951C15.8454 7.67213 16.7928 6.8202 17.9358 6.8202C19.0789 6.8202 20.0263 7.67213 20.1766 8.77462H20.494C20.7732 8.77462 20.9999 8.54792 20.9999 8.26871V5.21418L19.7184 2.02839ZM20.1289 5.34782C20.0692 5.42179 19.9809 5.46475 19.8879 5.46475C19.8736 5.46475 19.8592 5.46475 19.8449 5.46236L16.9407 5.06384C16.788 5.04236 16.6758 4.9135 16.6758 4.75838V2.82305C16.6758 2.73714 16.7116 2.65601 16.7737 2.59635C16.8357 2.53669 16.9216 2.50805 17.0075 2.51521L19.0885 2.67748C19.2078 2.68703 19.3104 2.76339 19.3533 2.87555L20.179 5.04713C20.2172 5.14975 20.2005 5.26429 20.1313 5.34782H20.1289Z" fill="#0137FF"/>
<path d="M13.7979 0H0.51068C0.22909 0 0 0.22909 0 0.51068V8.30213L1.05954 8.77463H2.38874C2.53908 7.67213 3.48647 6.8202 4.62953 6.8202C5.77259 6.8202 6.71998 7.67213 6.87032 8.77463H14.3062V0.51068C14.3062 0.22909 14.0771 0 13.7955 0H13.7979Z" fill="#0137FF"/>
<path d="M17.9359 10.729C18.8453 10.729 19.5825 9.99182 19.5825 9.08244C19.5825 8.17305 18.8453 7.43585 17.9359 7.43585C17.0265 7.43585 16.2893 8.17305 16.2893 9.08244C16.2893 9.99182 17.0265 10.729 17.9359 10.729Z" fill="#0137FF"/>
</svg>
