<svg width="21" height="17" viewBox="0 0 21 17" fill="none" xmlns="http://www.w3.org/2000/svg">
<path fill-rule="evenodd" clip-rule="evenodd" d="M1.00527 10.1431C0.934935 12.3234 1.56792 14.5037 2.97454 16.3323L3.67786 15.1366C2.69322 13.6597 2.2009 11.9014 2.27123 10.1431H1.00527Z" fill="#8AA2FD" stroke="#8AA2FD" stroke-width="0.5"/>
<path fill-rule="evenodd" clip-rule="evenodd" d="M3.88894 3.67265C3.74828 3.74298 3.67794 3.81332 3.60761 3.88365C2.13065 5.43094 1.28668 7.32988 1.07568 9.29916H2.34165C2.62297 7.68154 3.32629 6.06392 4.52192 4.79795C4.59225 4.72762 4.66258 4.65729 4.73291 4.58696L3.88894 3.67265Z" fill="#8AA2FD" stroke="#8AA2FD" stroke-width="0.5"/>
<path fill-rule="evenodd" clip-rule="evenodd" d="M10.0782 1C8.10889 1.07033 6.13961 1.77364 4.45166 3.10994L5.36597 4.02425C6.77259 2.96928 8.39022 2.3363 10.0782 2.26596V1Z" fill="#8AA2FD" stroke="#8AA2FD" stroke-width="0.5"/>
<path fill-rule="evenodd" clip-rule="evenodd" d="M16.5484 3.10994C14.8604 1.77364 12.8912 1.07033 10.9219 1V2.26596C12.6098 2.3363 14.2274 2.96928 15.6341 4.02425L16.5484 3.10994Z" fill="#8AA2FD" stroke="#8AA2FD" stroke-width="0.5"/>
<path fill-rule="evenodd" clip-rule="evenodd" d="M19.9246 9.29916C19.6433 7.25955 18.729 5.21994 17.1113 3.67265L16.197 4.58696C17.6036 5.92326 18.3773 7.54088 18.6586 9.29916H19.9246Z" fill="#8AA2FD" stroke="#8AA2FD" stroke-width="0.5"/>
<path fill-rule="evenodd" clip-rule="evenodd" d="M18.0256 16.3323C19.4322 14.5037 20.0652 12.3234 19.9949 10.1431H18.7289C18.7992 11.9014 18.3069 13.6597 17.3223 15.1366L18.0256 16.3323Z" fill="#8AA2FD" stroke="#8AA2FD" stroke-width="0.5"/>
<path d="M7.65259 12.1678L7.6526 12.1678L7.65454 12.1658L13.6016 6.08512C13.5879 6.16322 13.5711 6.25036 13.551 6.34638C13.4116 7.01447 13.1394 8.00821 12.819 9.07038C12.4991 10.1308 12.1333 11.2524 11.8083 12.1738C11.6458 12.6346 11.494 13.0437 11.3637 13.3693C11.2313 13.7003 11.1269 13.9301 11.0593 14.0427L11.0593 14.0426L11.0566 14.0472C10.5597 14.9169 9.37665 15.2875 8.44841 14.7305C7.97098 14.4441 7.5882 13.964 7.42287 13.468C7.25866 12.9754 7.3165 12.5039 7.65259 12.1678ZM10.5056 13.3124C10.8494 12.7811 10.685 12.0608 10.1335 11.7745C9.60216 11.4306 8.88186 11.5951 8.59557 12.1466C8.41572 12.4253 8.39818 12.7435 8.47466 13.0167C8.55066 13.2881 8.72502 13.5364 8.95964 13.6792C9.49171 14.03 10.2178 13.8667 10.5056 13.3124Z" fill="#8AA2FD" stroke="#8AA2FD" stroke-width="0.5"/>
</svg>
