<svg width="117" height="20" viewBox="0 0 117 20" fill="none" xmlns="http://www.w3.org/2000/svg">
<path d="M22.7282 0.949493C21.3307 0.949493 20.116 1.74058 19.504 2.89777C18.5708 2.74371 17.1228 2.72057 15.7117 3.56893C13.7272 4.76188 12.5207 7.21791 12.1256 10.8692C11.9047 12.9117 11.2455 14.2746 10.1671 14.9198C9.21724 15.4881 8.05702 15.45 7.20445 15.3009C6.84163 13.6696 5.38545 12.4456 3.64664 12.4456C1.63595 12.4456 0 14.0815 0 16.0924C0 18.1034 1.63595 19.7391 3.64664 19.7391C5.02287 19.7391 6.22283 18.9725 6.8435 17.8443C7.2671 17.9138 7.74213 17.9626 8.24708 17.9626C9.27148 17.9626 10.4128 17.7637 11.468 17.1383C13.2875 16.0595 14.3687 14.0436 14.6822 11.1458C14.9798 8.39473 15.7861 6.5416 17.0134 5.78698C17.8323 5.28343 18.7036 5.34959 19.1863 5.4466C19.5711 7.04772 21.0111 8.24254 22.7282 8.24254C24.7391 8.24254 26.3751 6.60659 26.3751 4.5959C26.3749 2.58521 24.7389 0.949493 22.7282 0.949493ZM3.64687 17.8687C2.66736 17.8687 1.87043 17.0717 1.87043 16.0922C1.87043 15.1127 2.66736 14.3155 3.64687 14.3155C4.62639 14.3155 5.42356 15.1125 5.42356 16.0922C5.42356 16.2708 5.39644 16.4431 5.34711 16.6056L5.2183 16.9181C4.92024 17.4827 4.32809 17.8687 3.64687 17.8687ZM22.7282 6.37258C21.7489 6.37258 20.952 5.57565 20.952 4.59613C20.952 3.61662 21.7487 2.81969 22.7282 2.81969C23.7077 2.81969 24.5049 3.61662 24.5049 4.59613C24.5049 5.57565 23.7077 6.37258 22.7282 6.37258Z" fill="#0137FF"/>
<path d="M40.7419 19.3412H37.2109V4.05796H32.5996V0.579708H45.3532V4.05796H40.7419V19.3412ZM49.4375 19.3412H46.1174V7.2727H49.4375V8.24767C50.3861 7.29905 51.809 6.98285 52.7577 6.98285H53.5482L52.7577 10.2766H52.257C50.7023 10.2766 49.4375 11.4888 49.4375 12.938V19.3412ZM60.6891 19.5783C59.029 19.5783 57.448 18.9459 56.2359 17.7602C55.0501 16.548 54.3914 14.967 54.3914 13.3069C54.3914 11.6469 55.0501 10.0658 56.2359 8.85373C57.4217 7.66796 59.0027 7.03555 60.6891 7.03555C61.7958 7.03555 62.7971 7.43081 63.6667 8.22132L63.7985 8.32672V7.2727H66.9869V19.3412H63.7985V18.3926L63.6667 18.5243C62.7181 19.4466 61.6377 19.5783 60.6891 19.5783ZM60.6891 10.1185C59.0027 10.1185 57.5798 11.5942 57.5798 13.3069C57.5798 15.0461 59.0027 16.4953 60.6891 16.4953C62.3755 16.4953 63.7985 15.0461 63.7985 13.3069C63.7985 11.5942 62.3755 10.1185 60.6891 10.1185ZM73.9697 19.3412H70.5442V7.2727H73.9697V19.3412ZM72.2569 5.82343C71.1239 5.82343 70.2016 4.90117 70.2016 3.79445C70.2016 3.2411 70.4124 2.74044 70.8077 2.37153C71.2029 1.97628 71.7036 1.76547 72.2569 1.76547C73.3636 1.76547 74.2859 2.68774 74.2859 3.79445C74.2859 4.90117 73.3636 5.82343 72.2569 5.82343ZM81.137 19.3412H77.7115V0H81.137V19.3412ZM88.9104 19.4466C88.5415 19.4466 88.1462 19.3939 87.6719 19.3148C86.3544 19.0513 85.1159 18.4716 84.141 17.6021L83.7457 17.2859L85.722 15.0988L86.0909 15.4413C87.2503 16.4163 88.1989 16.6007 88.805 16.6007C89.2529 16.6007 89.5691 16.548 89.8853 16.3899C90.2806 16.2318 90.465 15.9683 90.465 15.5994C90.465 15.2832 90.2806 14.888 88.7259 14.6245C87.303 14.3346 86.4071 14.0448 85.9855 13.8076C85.4321 13.4914 84.9842 13.0698 84.668 12.5428C84.3518 12.0158 84.1937 11.4361 84.1937 10.7773C84.1937 10.0922 84.4045 9.43344 84.8261 8.82738C85.1686 8.32672 85.6693 7.93146 86.4071 7.56256C87.0131 7.27271 87.6983 7.14095 88.5151 7.14095C88.805 7.14095 89.0948 7.1673 89.3583 7.19365C90.5177 7.37811 91.6772 7.87876 92.6258 8.61657L93.021 8.93278L91.1502 11.0935L90.7812 10.8037C89.859 10.0658 89.0685 9.93409 88.5942 9.93409C88.2516 9.93409 87.9354 9.98679 87.6456 10.1185C87.303 10.303 87.1185 10.5929 87.1185 10.7773C87.1185 11.1462 87.382 11.4097 88.7523 11.7259C90.5441 12.1475 91.1238 12.3583 91.4927 12.5164C92.2305 12.938 92.5467 13.2806 92.8102 13.6231C93.2055 14.1765 93.3899 14.8616 93.3899 15.5994C93.3899 16.3636 93.1791 17.0487 92.7839 17.6021C92.3886 18.1554 91.8616 18.6297 91.0975 18.9986C90.4914 19.2885 89.7009 19.4466 88.9104 19.4466ZM100.926 19.631H100.9C100.136 19.631 99.3451 19.4466 98.6073 19.104C97.9222 18.8142 97.2898 18.3399 96.7101 17.7338C95.7878 16.7325 95.2345 15.415 95.1027 14.0448C95.0764 13.8076 95.05 13.5704 95.05 13.3069C95.05 12.7799 95.1291 12.2266 95.2608 11.6732C95.498 10.6192 95.9986 9.64424 96.7101 8.90643C97.2371 8.32672 97.8432 7.87876 98.6073 7.50986C99.3188 7.1673 100.109 7.0092 100.926 7.0092C101.769 7.0092 102.534 7.1673 103.245 7.50986C104.035 7.87876 104.668 8.35307 105.142 8.90643C105.827 9.64424 106.354 10.5929 106.618 11.6732C106.75 12.1739 106.802 12.7009 106.802 13.3069V13.913H97.9486L97.9749 14.0975C98.3175 15.7312 99.5559 16.9169 100.926 16.9169H100.952C101.717 16.8642 102.56 16.3899 103.061 15.9683L103.35 15.7312L105.537 17.6284L105.142 17.971C104.852 18.2345 104.483 18.5507 104.088 18.7615H104.062C103.113 19.3148 102.086 19.6047 100.926 19.631ZM100.926 9.74964C99.8985 9.74964 98.8708 10.4611 98.3175 11.5678L98.2121 11.7786H103.667L103.561 11.5678C102.955 10.4348 101.954 9.74964 100.926 9.74964ZM117 19.3412H113.838C112.678 19.3412 111.598 18.8932 110.808 18.1027C109.991 17.2858 109.569 16.2318 109.569 15.0724V10.0658H107.883V7.35176H109.569V2.60869H112.705V7.35176H116.209V10.0658H112.705V15.0197C112.705 15.6785 113.284 16.2845 113.864 16.2845H116.157L117 19.3412Z" fill="#303841"/>
</svg>
