<svg width="27" height="20" viewBox="0 0 27 20" fill="none" xmlns="http://www.w3.org/2000/svg">
<path d="M22.7282 0.949493C21.3307 0.949493 20.116 1.74058 19.504 2.89777C18.5708 2.74371 17.1228 2.72057 15.7117 3.56893C13.7272 4.76188 12.5207 7.21791 12.1256 10.8692C11.9047 12.9117 11.2455 14.2746 10.1671 14.9198C9.21724 15.4881 8.05702 15.45 7.20445 15.3009C6.84163 13.6696 5.38545 12.4456 3.64664 12.4456C1.63595 12.4456 0 14.0815 0 16.0924C0 18.1034 1.63595 19.7391 3.64664 19.7391C5.02287 19.7391 6.22283 18.9725 6.8435 17.8443C7.2671 17.9138 7.74213 17.9626 8.24708 17.9626C9.27148 17.9626 10.4128 17.7637 11.468 17.1383C13.2875 16.0595 14.3687 14.0436 14.6822 11.1458C14.9798 8.39473 15.7861 6.5416 17.0134 5.78698C17.8323 5.28343 18.7036 5.34959 19.1863 5.4466C19.5711 7.04772 21.0111 8.24254 22.7282 8.24254C24.7391 8.24254 26.3751 6.60659 26.3751 4.5959C26.3749 2.58521 24.7389 0.949493 22.7282 0.949493ZM3.64687 17.8687C2.66736 17.8687 1.87043 17.0717 1.87043 16.0922C1.87043 15.1127 2.66736 14.3155 3.64687 14.3155C4.62639 14.3155 5.42356 15.1125 5.42356 16.0922C5.42356 16.2708 5.39644 16.4431 5.34711 16.6056L5.2183 16.9181C4.92024 17.4827 4.32809 17.8687 3.64687 17.8687ZM22.7282 6.37258C21.7489 6.37258 20.952 5.57565 20.952 4.59613C20.952 3.61662 21.7487 2.81969 22.7282 2.81969C23.7077 2.81969 24.5049 3.61662 24.5049 4.59613C24.5049 5.57565 23.7077 6.37258 22.7282 6.37258Z" fill="#0137FF"/>
</svg>
