<svg width="19" height="12" viewBox="0 0 19 12" fill="none" xmlns="http://www.w3.org/2000/svg">
<path d="M10.7007 0.599996C10.5444 0.616376 10.3998 0.690266 10.2949 0.807309C10.1901 0.924352 10.1325 1.07619 10.1333 1.23333V4.82222H0.633333C0.465368 4.82224 0.304287 4.88897 0.185518 5.00774C0.0667482 5.12651 1.6794e-05 5.28759 0 5.45555V9.88889C1.6794e-05 10.0569 0.0667482 10.2179 0.185518 10.3367C0.304287 10.4555 0.465368 10.5222 0.633333 10.5222H2.41458C2.68537 11.3764 3.49428 12 4.43333 12C5.37239 12 6.1813 11.3764 6.45208 10.5222H12.9701C13.2409 11.3764 14.0498 12 14.9889 12C15.9279 12 16.7369 11.3764 17.0076 10.5222H18.3667C18.5346 10.5222 18.6957 10.4555 18.8145 10.3367C18.9333 10.2179 19 10.0569 19 9.88889V4.46597C19 3.62606 18.7035 2.72281 18.1753 1.97222C17.6472 1.22163 16.8292 0.599996 15.8069 0.599996H10.7667C10.7447 0.59885 10.7227 0.59885 10.7007 0.599996ZM11.4 1.86666H13.0889V5.45555C13.0889 5.62352 13.1556 5.7846 13.2744 5.90337C13.3932 6.02214 13.5543 6.08887 13.7222 6.08888H17.7333V9.25555H17.001C16.7278 8.40538 15.9251 7.77777 14.9889 7.77777C14.0527 7.77777 13.2499 8.40538 12.9767 9.25555H6.44549C6.17229 8.40538 5.36953 7.77777 4.43333 7.77777C3.49714 7.77777 2.69437 8.40538 2.42118 9.25555H1.26667V6.08888H10.7667C10.9346 6.08887 11.0957 6.02214 11.2145 5.90337C11.3333 5.7846 11.4 5.62352 11.4 5.45555V1.86666ZM14.3556 1.86666H15.8069C16.3107 1.86666 16.7694 2.17842 17.1396 2.70451C17.5098 3.2306 17.7333 3.94729 17.7333 4.46597V4.82222H14.3556V1.86666ZM4.43333 9.04444C4.90722 9.04444 5.27778 9.41505 5.27778 9.88889C5.27778 10.3628 4.90721 10.7333 4.43333 10.7333C3.95945 10.7333 3.58889 10.3628 3.58889 9.88889C3.58889 9.41503 3.95944 9.04444 4.43333 9.04444ZM14.9889 9.04444C15.4628 9.04444 15.8333 9.41503 15.8333 9.88889C15.8333 10.3628 15.4628 10.7333 14.9889 10.7333C14.515 10.7333 14.1444 10.3628 14.1444 9.88889C14.1444 9.41505 14.515 9.04444 14.9889 9.04444Z" fill="#8AA2FD"/>
</svg>
